<svg xmlns="http://www.w3.org/2000/svg" viewBox="0 0 742.1 195.64"><path fill="none" d="M490.05 164.83h31.8l-15.95-35.01-15.85 35.01zM143.1 19.78a89.28 89.28 0 0 0-68.53-9.16 90.5 90.5 0 0 0-55 42.16 43.85 43.85 0 0 0 8.75 53.89 42 42 0 0 0 6.82 4.86 45.65 45.65 0 0 0 8.32 3.86 43.73 43.73 0 0 0 10 2c-1.4-3.47-2.38-8.54-2.38-15.93 0-21.66 12.35-20.82 12.35-20.82h33.51v-3.21H74.26V66.09c0-3.22 3.22-9.14 24.71-9.14s20 10.49 20 10.49v7.34a52.71 52.71 0 0 1 45.57 2.63 50.62 50.62 0 0 1 21.43 25.71 53.29 53.29 0 0 1 1.75 5.22 90 90 0 0 0-2.52-33.8 89.07 89.07 0 0 0-42.1-54.76zM113.68 137.98a4.23 4.23 0 1 0-4.23 4.23 4.23 4.23 0 0 0 4.23-4.23zM287.28 58.32q4.08-4.59 4.08-13.4t-5.32-12.53q-5.31-3.72-16.53-3.71h-13v34.23h15.3q11.4 0 15.47-4.59z"/><path fill="none" d="M79.84 67.75a4.23 4.23 0 1 0 4.23-4.23 4.23 4.23 0 0 0-4.23 4.23zM407.3 145.42q0-7.89-5.11-12.18t-14.81-4.29h-17.33v32.93h17.33q9.69 0 14.81-4.29t5.11-12.17zM160.37 84a43.74 43.74 0 0 0-32.64-4.23h3.21c2.54 0 11 1.69 11 23.35s-12.36 20.82-12.36 20.82h-33.5v3.21h22.67v11.38c0 3.22-3.21 9.14-24.7 9.14s-20-10.49-20-10.49v-23.19c0-12.18 12.35-10.32 12.35-10.32h22.54c14.21 0 12.86-12.52 12.86-12.52v-9.36c-1 .41-2 .86-2.9 1.34v7.51c0 12.18-12.35 10.32-12.35 10.32H84.04c-14.22 0-12.86 12.52-12.86 12.52v11.34h-7.36a49.93 49.93 0 0 1-22.33-2.14l-1.13-.38-.16-.05a52.84 52.84 0 0 1-8.73-3.91 50.91 50.91 0 0 1-6.91-5A50.16 50.16 0 0 1 7.98 87.68c-3.73 34.8 12.7 70.39 44.52 89.08 42.84 23.95 98.44 9 123.89-33.43 11.78-20.57 4.6-47.22-16.02-59.33zM645.79 131.77a17.7 17.7 0 0 0-20.19 0 20.43 20.43 0 0 0-6.8 9.18 43.7 43.7 0 0 0 0 28.68 20.41 20.41 0 0 0 6.8 9.19 17.7 17.7 0 0 0 20.19 0 20.35 20.35 0 0 0 6.81-9.19 43.7 43.7 0 0 0 0-28.68 20.37 20.37 0 0 0-6.81-9.18zM573.94 26.64a27.91 27.91 0 0 0-21.49 9.61 35.16 35.16 0 0 0 0 46.4 29 29 0 0 0 43 0 35.16 35.16 0 0 0 0-46.4 27.91 27.91 0 0 0-21.51-9.61zm4.35 37.49l-4.73 11.34-4.74-11.34-11.34-4.74 11.34-4.73 4.74-11.34 4.73 11.34 11.34 4.73zM727.28 130.34a20.32 20.32 0 0 0-9.35-2q-7.11 0-11.53 3.94a14.49 14.49 0 0 0 0 20.84q4.43 3.9 12.05 3.9a19.38 19.38 0 0 0 8.7-1.91 14.57 14.57 0 0 0 6-5.2 13.24 13.24 0 0 0 2.12-7.36 12.92 12.92 0 0 0-2-6.93 14.57 14.57 0 0 0-5.99-5.28zM332.53 132.07a29.25 29.25 0 0 0-27.6 0 25.49 25.49 0 0 0-9.75 9.58 28 28 0 0 0 0 27.29 25.39 25.39 0 0 0 9.76 9.59 29.18 29.18 0 0 0 27.6 0 25.47 25.47 0 0 0 9.7-9.57 28 28 0 0 0 0-27.29 25.57 25.57 0 0 0-9.71-9.6z"/><path d="M281.92 124.97h-5.37l-37.86 38.99v-38.99h-4.42v60.65h4.42v-15.94l13.6-13.95 26.08 29.89h5.38l-28.51-33.1 26.68-27.55zM334.87 128.53a34.39 34.39 0 0 0-32.23 0 29.65 29.65 0 0 0-11.31 11 31.92 31.92 0 0 0 0 31.37 29.55 29.55 0 0 0 11.31 11 32.32 32.32 0 0 0 16.11 4 32.67 32.67 0 0 0 16.12-4 29.47 29.47 0 0 0 11.31-11 32.31 32.31 0 0 0 0-31.54 29.52 29.52 0 0 0-11.31-10.83zm7.36 40.42a25.47 25.47 0 0 1-9.7 9.57 29.18 29.18 0 0 1-27.6 0 25.39 25.39 0 0 1-9.75-9.57 28 28 0 0 1 0-27.29 25.49 25.49 0 0 1 9.75-9.58 29.25 29.25 0 0 1 27.6 0 25.57 25.57 0 0 1 9.7 9.58 28 28 0 0 1 0 27.29zM408.13 157.53a19.54 19.54 0 0 0 3.68-12.08q0-9.61-6.5-15t-17.93-5.41h-21.75v60.65h4.42v-19.84h17.33a45.76 45.76 0 0 0 5.89-.43l14.47 20.27h5l-15.16-21.23a19.52 19.52 0 0 0 10.55-6.93zm-20.75 4.38h-17.33v-32.93h17.33q9.69 0 14.81 4.29t5.11 12.18q0 7.88-5.11 12.17t-14.81 4.26zM432.43 156.77h32.32v-3.9h-32.32v-23.91h36.13v-3.99h-40.55v60.65h41.85v-3.98h-37.43v-24.87zM503.74 124.97l-27.9 60.65h4.77l7.71-17.07h35.17l7.8 17.07h4.77l-27.9-60.65zm-13.69 39.86l15.86-35 15.94 35zM591.16 159.37q5.73-5.64 7.8-9.88a20 20 0 0 0 2.08-8.92 14.33 14.33 0 0 0-5.28-11.7q-5.29-4.34-14.21-4.34a31.93 31.93 0 0 0-12.09 2.17 22.87 22.87 0 0 0-8.79 6.15l3.12 2.78a19.45 19.45 0 0 1 7.4-5.29 26.53 26.53 0 0 1 10-1.73q7.46 0 11.39 3.29a11.21 11.21 0 0 1 3.95 9.1 16.62 16.62 0 0 1-1.78 7.41 35.7 35.7 0 0 1-6.8 8.62l-25.64 25.5v3.12h41.68v-4h-35.18zM648.05 128.3a22.11 22.11 0 0 0-24.7 0 24.42 24.42 0 0 0-8.4 10.71 45.84 45.84 0 0 0 0 32.57 24.33 24.33 0 0 0 8.4 10.7 22.11 22.11 0 0 0 24.7 0 24.4 24.4 0 0 0 8.4-10.7 45.84 45.84 0 0 0 0-32.57 24.49 24.49 0 0 0-8.4-10.71zm4.55 41.33a20.35 20.35 0 0 1-6.81 9.19 17.7 17.7 0 0 1-20.19 0 20.41 20.41 0 0 1-6.8-9.19 43.7 43.7 0 0 1 0-28.68 20.43 20.43 0 0 1 6.8-9.18 17.7 17.7 0 0 1 20.19 0 20.37 20.37 0 0 1 6.81 9.18 43.7 43.7 0 0 1 0 28.68zM664.9 128.96h14.81v56.66h4.42v-60.65H664.9v3.99zM735.82 132.53q-6.28-8-18.07-8a23.34 23.34 0 0 0-10.4 2.26 17.27 17.27 0 0 0-7.19 6.41 19.09 19.09 0 0 0-.08 19.1 16.33 16.33 0 0 0 7.14 6.33 24.44 24.44 0 0 0 10.62 2.21 22.61 22.61 0 0 0 12.26-3.29 16.18 16.18 0 0 0 7.06-9.19 46.57 46.57 0 0 1 .52 7.28q0 12.91-6 19.71t-16.51 6.8q-7.62 0-12-2.77l-1.81 3.55q5.19 3.12 13.77 3.12a27.58 27.58 0 0 0 14.21-3.55 23.62 23.62 0 0 0 9.4-10.53q3.34-7 3.34-17 .02-14.44-6.26-22.44zm-2.69 17.37a14.57 14.57 0 0 1-6 5.2 19.38 19.38 0 0 1-8.7 1.91q-7.64 0-12.05-3.9a14.49 14.49 0 0 1 0-20.84q4.43-3.95 11.53-3.94a20.32 20.32 0 0 1 9.35 2 14.57 14.57 0 0 1 5.94 5.29 12.92 12.92 0 0 1 2 6.93 13.24 13.24 0 0 1-2.07 7.37zM256.54 82.58h13.55q22.57 0 33.58-8.74t11-27.61q0-18.87-10.71-28T269.8 9.12h-36v101.83h22.72zm0-53.9h13q11.22 0 16.53 3.71t5.32 12.53q0 8.82-4.08 13.4t-15.44 4.59h-15.3zM375.56 110.98v-40.2l35.25-61.63h-24.62l-22 37.88L342.2 9.15h-24.62l35.25 61.63v40.2h22.73zM469.6 112.15q23.52 0 40.86-19.52l-14.57-15q-10.64 13.26-27.39 13.26a28.37 28.37 0 0 1-20.83-8.59q-8.6-8.6-8.59-22.8t9.1-22.58a31.23 31.23 0 0 1 21.93-8.38q16 0 26.8 13.4l14.13-16Q494.15 6.86 469.09 6.85q-22.44 0-38 15.15t-15.52 37.81q0 22.65 15.23 37.51t38.8 14.83zM611.85 21.9q-15.45-15.07-38-15.08t-38 15.08Q520.4 36.98 520.4 59.41t15.45 37.52q15.44 15.07 38 15.07t38-15.07q15.43-15.09 15.44-37.52T611.85 21.9zm-16.46 60.75a29 29 0 0 1-43 0 35.16 35.16 0 0 1 0-46.4 28.83 28.83 0 0 1 43 0 35.16 35.16 0 0 1 0 46.4zM669.24 47.18l48.51 63.8h22.73V9.15h-22.73v65.56L667.79 9.15h-21.27v101.83h22.72v-63.8z"/><path d="M573.51 43.32l-4.73 11.34-11.34 4.73 11.34 4.74 4.73 11.34 4.74-11.34 11.34-4.74-11.34-4.73-4.74-11.34zM146.85 13.28a96.62 96.62 0 0 0-74.23-9.9 97.94 97.94 0 0 0-59.55 45.66l-.15.27-.28-.15c-26.35 46.76-10.16 106.9 36.17 134.1a97.56 97.56 0 0 0 47.75 12.38c34.13 0 67.69-17.46 86.33-48.52.1-.17.18-.35.28-.52l.15.09c13.12-22.51 15.86-48.84 9.08-74.12a96.52 96.52 0 0 0-45.55-59.29zm29.57 130.05c-25.45 42.4-81 57.38-123.89 33.43-31.82-18.69-48.25-54.28-44.52-89.08a50.16 50.16 0 0 0 16.58 25.66 50.91 50.91 0 0 0 6.91 5 52.84 52.84 0 0 0 8.73 3.91l.16.05 1.13.38a49.93 49.93 0 0 0 22.33 2.14h7.36v-11.34s-1.36-12.52 12.86-12.52h22.51s12.35 1.86 12.35-10.32v-7.51c1-.48 1.92-.93 2.9-1.34v9.36s1.35 12.52-12.86 12.52H86.46s-12.35-1.86-12.35 10.32v23.19s-1.53 10.49 20 10.49 24.7-5.92 24.7-9.14v-11.34H96.14v-3.21h33.5s12.36.84 12.36-20.82-8.46-23.35-11-23.35h-3.24a43.74 43.74 0 0 1 32.64 4.23c20.59 12.07 27.77 38.72 16.02 59.29zm-71.2-5.35a4.23 4.23 0 1 1 4.23 4.23 4.24 4.24 0 0 1-4.23-4.23zm82.46-29.67a53.29 53.29 0 0 0-1.75-5.22 50.62 50.62 0 0 0-21.43-25.71 52.71 52.71 0 0 0-45.57-2.63v-7.34s1.52-10.49-20-10.49-24.71 5.92-24.71 9.14V77.4h22.72v3.21H63.43s-12.35-.84-12.35 20.82c0 7.39 1 12.46 2.38 15.93a43.73 43.73 0 0 1-10-2 45.65 45.65 0 0 1-8.32-3.86 42 42 0 0 1-6.82-4.86 43.85 43.85 0 0 1-8.75-53.89A90.82 90.82 0 0 1 98.01 7.48a90.51 90.51 0 0 1 89.68 100.8zM88.3 67.75a4.23 4.23 0 1 1-4.23-4.23 4.23 4.23 0 0 1 4.23 4.23z"/></svg>
