<?xml version="1.0" encoding="utf-8"?>
<!-- Generator: Adobe Illustrator 16.0.0, SVG Export Plug-In . SVG Version: 6.00 Build 0)  -->
<!DOCTYPE svg PUBLIC "-//W3C//DTD SVG 1.1//EN" "http://www.w3.org/Graphics/SVG/1.1/DTD/svg11.dtd">
<svg version="1.1" id="Layer_1" xmlns="http://www.w3.org/2000/svg" xmlns:xlink="http://www.w3.org/1999/xlink" x="0px" y="0px"
	 width="139px" height="37px" viewBox="0 0 139 37" enable-background="new 0 0 139 37" xml:space="preserve">
<polygon fill="#F95858" points="46.693,29.133 44.145,31.745 44.145,34.731 43.318,34.731 43.318,23.371 44.145,23.371 
	44.145,30.675 51.238,23.371 52.244,23.371 47.246,28.532 52.585,34.731 51.579,34.731 "/>
<path fill="#F95858" d="M56.123,34.058c-0.898-0.503-1.604-1.192-2.118-2.068c-0.514-0.877-0.771-1.856-0.771-2.938
	c0-1.082,0.257-2.062,0.771-2.938c0.514-0.877,1.22-1.567,2.118-2.07c0.898-0.503,1.904-0.755,3.019-0.755
	c1.114,0,2.121,0.249,3.019,0.747c0.898,0.498,1.604,1.186,2.118,2.062c0.514,0.875,0.771,1.86,0.771,2.954
	c0,1.093-0.256,2.076-0.771,2.953c-0.514,0.876-1.22,1.563-2.118,2.062c-0.898,0.497-1.905,0.746-3.019,0.746
	C58.027,34.812,57.021,34.561,56.123,34.058 M61.722,33.4c0.768-0.433,1.374-1.03,1.818-1.793c0.443-0.763,0.665-1.615,0.665-2.556
	c0-0.942-0.222-1.795-0.665-2.558c-0.444-0.762-1.05-1.359-1.818-1.793c-0.769-0.433-1.629-0.648-2.581-0.648
	c-0.953,0-1.815,0.216-2.589,0.648c-0.773,0.434-1.382,1.031-1.826,1.793c-0.443,0.763-0.665,1.615-0.665,2.558
	c0,0.94,0.222,1.793,0.665,2.556c0.444,0.763,1.052,1.36,1.826,1.793c0.774,0.433,1.636,0.649,2.589,0.649
	C60.093,34.05,60.954,33.833,61.722,33.4"/>
<path fill="#F95858" d="M75.809,34.73l-2.71-3.797c-0.4,0.055-0.768,0.081-1.104,0.081h-3.246v3.716h-0.827V23.371h4.073
	c1.429,0,2.548,0.338,3.36,1.014c0.811,0.677,1.217,1.615,1.217,2.816c0,0.897-0.23,1.652-0.689,2.264
	c-0.46,0.611-1.117,1.042-1.973,1.29l2.841,3.976H75.809z M71.995,30.284c1.212,0,2.137-0.268,2.775-0.804
	c0.639-0.534,0.958-1.295,0.958-2.279c0-0.985-0.319-1.745-0.958-2.28c-0.639-0.536-1.563-0.804-2.775-0.804h-3.246v6.167H71.995z"
	/>
<polygon fill="#F95858" points="87.446,33.984 87.446,34.731 79.606,34.731 79.606,23.37 87.202,23.37 87.202,24.117 80.435,24.117 
	80.435,28.597 86.488,28.597 86.488,29.327 80.435,29.327 80.435,33.984 "/>
<path fill="#F95858" d="M97.491,31.534h-6.589l-1.444,3.196h-0.893l5.226-11.359h0.828l5.226,11.359h-0.893L97.491,31.534z
	 M97.184,30.837l-2.986-6.558l-2.97,6.558H97.184z"/>
<path fill="#F95858" d="M112.568,33.984v0.747h-7.807v-0.585l4.804-4.771c0.628-0.628,1.053-1.166,1.274-1.615
	s0.333-0.911,0.333-1.388c0-0.725-0.246-1.293-0.738-1.704c-0.493-0.411-1.204-0.616-2.134-0.616c-0.715,0-1.34,0.107-1.875,0.324
	s-0.998,0.546-1.388,0.99l-0.584-0.52c0.433-0.497,0.981-0.881,1.647-1.152c0.665-0.271,1.419-0.406,2.264-0.406
	c1.114,0,2.002,0.271,2.661,0.812c0.66,0.541,0.99,1.271,0.99,2.19c0,0.584-0.13,1.142-0.39,1.672s-0.746,1.146-1.46,1.85
	l-4.188,4.171H112.568z"/>
<path fill="#F95858" d="M116.195,34.106c-0.676-0.471-1.201-1.139-1.574-2.004c-0.373-0.866-0.561-1.883-0.561-3.051
	c0-1.169,0.188-2.187,0.561-3.052s0.898-1.534,1.574-2.004c0.677-0.471,1.447-0.707,2.313-0.707c0.865,0,1.636,0.236,2.312,0.707
	c0.676,0.47,1.2,1.139,1.574,2.004c0.373,0.865,0.56,1.883,0.56,3.052c0,1.168-0.187,2.185-0.56,3.051
	c-0.374,0.865-0.898,1.533-1.574,2.004c-0.677,0.471-1.447,0.706-2.312,0.706C117.643,34.812,116.872,34.577,116.195,34.106
	 M120.399,33.457c0.546-0.395,0.971-0.968,1.273-1.72s0.455-1.647,0.455-2.686c0-1.039-0.152-1.934-0.455-2.688
	c-0.303-0.751-0.728-1.325-1.273-1.72c-0.547-0.395-1.177-0.592-1.891-0.592c-0.715,0-1.345,0.197-1.892,0.592
	c-0.546,0.395-0.971,0.969-1.273,1.72c-0.304,0.754-0.454,1.648-0.454,2.688c0,1.038,0.15,1.934,0.454,2.686
	c0.303,0.752,0.728,1.325,1.273,1.72c0.547,0.396,1.177,0.593,1.892,0.593C119.223,34.05,119.853,33.853,120.399,33.457"/>
<polygon fill="#F95858" points="127.58,23.371 127.58,34.73 126.753,34.73 126.753,24.117 123.978,24.117 123.978,23.371 "/>
<path fill="#F95858" d="M137.262,24.791c0.784,1.001,1.176,2.398,1.176,4.195c0,1.255-0.208,2.317-0.625,3.188
	c-0.416,0.871-1.003,1.529-1.761,1.972c-0.757,0.444-1.645,0.666-2.661,0.666c-1.071,0-1.932-0.194-2.58-0.584l0.34-0.666
	c0.541,0.347,1.288,0.52,2.24,0.52c1.309,0,2.34-0.425,3.092-1.273c0.752-0.85,1.128-2.08,1.128-3.692
	c0-0.498-0.033-0.952-0.098-1.363c-0.227,0.735-0.668,1.31-1.322,1.72c-0.655,0.411-1.421,0.617-2.297,0.617
	c-0.747,0-1.409-0.138-1.988-0.414c-0.579-0.275-1.025-0.671-1.339-1.185s-0.471-1.106-0.471-1.776c0-0.683,0.162-1.283,0.487-1.803
	c0.324-0.519,0.773-0.919,1.347-1.2s1.223-0.423,1.947-0.423C135.349,23.289,136.477,23.79,137.262,24.791 M135.638,29.019
	c0.481-0.238,0.855-0.562,1.12-0.975c0.266-0.41,0.397-0.87,0.397-1.379c0-0.454-0.127-0.887-0.381-1.298s-0.625-0.741-1.112-0.99
	c-0.486-0.249-1.07-0.373-1.752-0.373c-0.888,0-1.607,0.246-2.159,0.739c-0.552,0.491-0.827,1.143-0.827,1.954
	c0,0.812,0.275,1.461,0.827,1.948s1.304,0.73,2.256,0.73C134.613,29.376,135.156,29.257,135.638,29.019"/>
<path fill="#F95858" d="M56.371,3.383c1.337,1.137,2.006,2.884,2.006,5.239c0,2.356-0.687,4.079-2.06,5.171
	c-1.375,1.091-3.47,1.637-6.29,1.637h-2.538v5.321h-4.256V1.678h6.74C52.901,1.678,55.035,2.247,56.371,3.383 M53.247,10.887
	c0.509-0.573,0.764-1.41,0.764-2.511c0-1.1-0.332-1.883-0.996-2.347c-0.665-0.464-1.697-0.695-3.097-0.695h-2.429v6.413h2.866
	C51.774,11.747,52.738,11.46,53.247,10.887"/>
<polygon fill="#F95858" points="69.782,20.751 65.526,20.751 65.526,13.22 58.922,1.678 63.534,1.678 67.654,8.772 71.774,1.678 
	76.387,1.678 69.782,13.22 "/>
<path fill="#F95858" d="M87.191,16.986c2.092,0,3.801-0.827,5.13-2.483l2.729,2.811c-2.165,2.438-4.716,3.656-7.653,3.656
	c-2.938,0-5.357-0.928-7.259-2.783s-2.852-4.198-2.852-7.026c0-2.828,0.969-5.189,2.906-7.081c1.938-1.892,4.307-2.838,7.108-2.838
	c3.128,0,5.748,1.191,7.858,3.575l-2.646,3.001c-1.347-1.674-3.021-2.51-5.021-2.51c-1.601,0-2.97,0.523-4.106,1.569
	c-1.137,1.045-1.705,2.455-1.705,4.229s0.536,3.198,1.609,4.271C84.362,16.449,85.663,16.986,87.191,16.986"/>
<path fill="#F95858" d="M114.041,18.118c-1.929,1.883-4.302,2.824-7.121,2.824c-2.82,0-5.194-0.941-7.122-2.824
	c-1.929-1.883-2.893-4.225-2.893-7.026s0.964-5.144,2.893-7.027c1.928-1.883,4.302-2.824,7.122-2.824
	c2.819,0,5.192,0.941,7.121,2.824s2.893,4.226,2.893,7.027S115.97,16.235,114.041,18.118 M112.595,11.105
	c0-1.701-0.546-3.152-1.637-4.352c-1.092-1.201-2.434-1.801-4.025-1.801s-2.933,0.6-4.024,1.801c-1.092,1.2-1.637,2.651-1.637,4.352
	s0.545,3.147,1.637,4.339c1.092,1.191,2.433,1.787,4.024,1.787s2.934-0.596,4.025-1.787
	C112.049,14.252,112.595,12.806,112.595,11.105"/>
<polygon fill="#F95858" points="133.879,1.678 138.136,1.678 138.136,20.751 133.879,20.751 124.792,8.799 124.792,20.751 
	120.535,20.751 120.535,1.678 124.52,1.678 133.879,13.957 "/>
<polygon fill="#F95858" points="107.748,10.201 109.872,11.087 107.748,11.975 106.861,14.099 105.974,11.975 103.851,11.087 
	105.974,10.201 106.861,8.077 "/>
<g>
	<path fill="#F95858" d="M36.205,13.578c-1.271-4.741-4.3-8.68-8.522-11.092c-4.229-2.465-9.162-3.125-13.887-1.854
		C9.082,1.898,5.126,4.93,2.653,9.175c-0.01,0.017-0.017,0.035-0.026,0.053l-0.054-0.03c-4.931,8.748-1.9,20.001,6.766,25.091
		c2.807,1.568,5.882,2.315,8.934,2.315c6.386-0.002,12.665-3.267,16.153-9.078c0.018-0.031,0.032-0.066,0.05-0.098l0.031,0.017
		C36.961,23.232,37.474,18.309,36.205,13.578z M10.036,33.071c-5.954-3.497-9.027-10.154-8.33-16.666
		c0.5,1.827,1.544,3.494,3.044,4.744c0.417,0.358,0.863,0.694,1.35,0.984c0.492,0.276,1,0.496,1.512,0.681
		c0.066,0.024,0.133,0.053,0.2,0.074c0.094,0.033,0.189,0.06,0.284,0.089c0.851,0.255,1.717,0.384,2.577,0.399
		c-0.48-0.17-1.076-0.583-1.515-1.562c-0.002-0.006-0.005-0.013-0.009-0.019c-0.248-0.053-0.496-0.113-0.742-0.19
		c-0.558-0.187-1.104-0.429-1.628-0.739c-0.468-0.267-0.897-0.576-1.288-0.92C2.728,17.425,1.96,13.216,3.867,9.876
		c2.283-3.918,5.938-6.721,10.292-7.89c1.451-0.39,2.923-0.582,4.385-0.582c2.933,0,5.829,0.776,8.438,2.296
		c3.9,2.228,6.694,5.865,7.869,10.241c0.563,2.098,0.715,4.239,0.472,6.327c-0.091-0.329-0.202-0.652-0.328-0.972
		c-0.734-1.951-2.099-3.677-4.01-4.818c-1.431-0.792-2.978-1.186-4.509-1.228c0.005,0.002,0.011,0.005,0.017,0.007
		c0.472,0.19,1.033,0.618,1.449,1.565c0.005,0.009,0.009,0.02,0.013,0.031c0.772,0.171,1.533,0.455,2.259,0.862
		c3.859,2.266,5.203,7.251,3.003,11.101C28.454,34.751,18.051,37.552,10.036,33.071z"/>
	<path fill="#F95858" d="M19.055,8.762c-4.51,0-5.186,1.247-5.186,1.922v2.386h4.76v0.676h-7.034c0,0-2.593-0.179-2.593,4.378
		c0,4.555,1.778,4.912,2.309,4.912h1.919V20.65c0,0-0.285-2.633,2.7-2.633h4.725c0,0,2.591,0.392,2.591-2.17v-4.879
		C23.246,10.968,23.566,8.762,19.055,8.762 M15.93,11.93c-0.491,0-0.889-0.399-0.889-0.89c0-0.49,0.397-0.889,0.889-0.889
		c0.49,0,0.887,0.399,0.887,0.889C16.817,11.531,16.419,11.93,15.93,11.93"/>
	<path fill="#F95858" d="M25.773,13.567h-1.918v2.385c0,0,0.284,2.635-2.7,2.635h-4.724c0,0-2.592-0.392-2.592,2.172v4.876
		c0,0-0.321,2.206,4.191,2.206c4.511,0,5.186-1.246,5.186-1.922v-2.384h-4.76v-0.678h7.034c0,0,2.593,0.179,2.593-4.378
		S26.304,13.567,25.773,13.567 M21.256,24.922c0.491,0,0.89,0.398,0.89,0.891c0,0.49-0.399,0.89-0.89,0.89
		c-0.489,0-0.888-0.399-0.888-0.89C20.368,25.32,20.767,24.922,21.256,24.922"/>
</g>
</svg>
